<svg width="28" height="27" viewBox="0 0 28 27" fill="none" xmlns="http://www.w3.org/2000/svg">
<path fill-rule="evenodd" clip-rule="evenodd" d="M28 15C28 18.2381 25.8796 20.9627 23 21.7623V19.6467C24.7314 18.9218 26 17.1518 26 15C26 12.1696 23.8053 10 21.2493 10C20.5272 10 19.8339 10.1732 19.2108 10.4855C19.1791 9.90367 19.0937 9.33674 18.9599 8.78992L18.9569 8.79115C18.0091 4.85004 14.5839 2 10.6083 2C5.92179 2 2 5.96046 2 11C2 14.2291 3.61019 17.0152 6 18.6003V20.9107C2.44938 19.1323 0 15.3628 0 11C0 4.92487 4.74949 0 10.6083 0C15.469 0 19.5661 3.38976 20.821 8.01387C20.9626 8.00467 21.1054 8.00001 21.2493 8.00001C24.9776 8.00001 28 11.134 28 15ZM8.00105 20.4091C8.0009 19.9308 8.15328 19.4108 8.36092 18.9244C8.80441 17.8856 9.5 17 9.5 17C9.5 17 10.1643 17.9175 10.609 18.9252C10.8327 19.4321 11.0009 19.9619 11.001 20.4091C11.0013 21.2877 10.33 22 9.50153 22C8.67311 22 8.00132 21.2877 8.00105 20.4091ZM13.3609 18.9244C13.1533 19.4108 13.0009 19.9308 13.001 20.4091C13.0013 21.2877 13.6731 22 14.5015 22C15.33 22 16.0013 21.2877 16.001 20.4091C16.0009 19.9619 15.8327 19.4321 15.609 18.9252C15.1643 17.9175 14.5 17 14.5 17C14.5 17 13.8044 17.8856 13.3609 18.9244ZM10.8756 25.4091C10.8754 24.9308 11.0278 24.4108 11.2354 23.9244C11.6789 22.8856 12.3745 22 12.3745 22C12.3745 22 13.0388 22.9175 13.4835 23.9252C13.7072 24.4321 13.8754 24.9619 13.8756 25.4091C13.8758 26.2877 13.2045 27 12.376 27C11.5476 27 10.8758 26.2877 10.8756 25.4091ZM18.3609 18.9244C18.1533 19.4108 18.0009 19.9308 18.001 20.4091C18.0013 21.2877 18.6731 22 19.5015 22C20.33 22 21.0013 21.2877 21.001 20.4091C21.0009 19.9619 20.8327 19.4321 20.609 18.9252C20.1643 17.9175 19.5 17 19.5 17C19.5 17 18.8044 17.8856 18.3609 18.9244ZM15.8905 25.4091C15.8903 24.9308 16.0427 24.4108 16.2503 23.9244C16.6938 22.8856 17.3894 22 17.3894 22C17.3894 22 18.0537 22.9175 18.4984 23.9252C18.7221 24.4321 18.8903 24.9619 18.8904 25.4091C18.8907 26.2877 18.2194 27 17.3909 27C16.5625 27 15.8907 26.2877 15.8905 25.4091Z" fill="url(#paint0_linear_9_3213)"/>
<defs>
<linearGradient id="paint0_linear_9_3213" x1="14" y1="0" x2="14" y2="27" gradientUnits="userSpaceOnUse">
<stop stop-color="#95B6F6"/>
<stop offset="1" stop-color="#5193DE"/>
</linearGradient>
</defs>
</svg>
