<svg width="28" height="28" viewBox="0 0 28 28" fill="none" xmlns="http://www.w3.org/2000/svg">
<path fill-rule="evenodd" clip-rule="evenodd" d="M16 13L15.2565 13.5204L15.4142 14.4142L14.5204 14.2565L14 15L13.4796 14.2565L12.5858 14.4142L12.7435 13.5204L12 13L12.7435 12.4796L12.5858 11.5858L13.4796 11.7435L14 11L14.5204 11.7435L15.4142 11.5858L15.2565 12.4796L16 13ZM11.2565 16.5204L12 16L11.2565 15.4796L11.4142 14.5858L10.5204 14.7435L10 14L9.47955 14.7435L8.58579 14.5858L8.74352 15.4796L8 16L8.74352 16.5204L8.58579 17.4142L9.47955 17.2565L10 18L10.5204 17.2565L11.4142 17.4142L11.2565 16.5204ZM15.2565 19.5204L16 19L15.2565 18.4796L15.4142 17.5858L14.5204 17.7435L14 17L13.4796 17.7435L12.5858 17.5858L12.7435 18.4796L12 19L12.7435 19.5204L12.5858 20.4142L13.4796 20.2565L14 21L14.5204 20.2565L15.4142 20.4142L15.2565 19.5204ZM19.2565 16.5204L20 16L19.2565 15.4796L19.4142 14.5858L18.5204 14.7435L18 14L17.4796 14.7435L16.5858 14.5858L16.7435 15.4796L16 16L16.7435 16.5204L16.5858 17.4142L17.4796 17.2565L18 18L18.5204 17.2565L19.4142 17.4142L19.2565 16.5204Z" fill="url(#paint0_linear_9_3947)"/>
<path fill-rule="evenodd" clip-rule="evenodd" d="M7 21.3473C2.91752 19.8163 0 15.7615 0 11C0 4.92487 4.74949 0 10.6083 0C15.469 0 19.5661 3.38976 20.821 8.01387C20.9626 8.00467 21.1054 8.00001 21.2493 8.00001C24.9776 8.00001 28 11.134 28 15C28 18.6028 25.375 21.57 22 21.9572V19.937C24.2205 19.5615 26 17.5486 26 15C26 12.1696 23.8053 10 21.2493 10C20.5272 10 19.8339 10.1732 19.2108 10.4855C19.1791 9.90367 19.0937 9.33674 18.9599 8.78992L18.9569 8.79115C18.0091 4.85004 14.5839 2 10.6083 2C5.92179 2 2 5.96046 2 11C2 14.6616 4.0703 17.7535 7 19.1706V21.3473Z" fill="url(#paint1_linear_9_3947)"/>
<path fill-rule="evenodd" clip-rule="evenodd" d="M10.5021 26.0021C10.7442 26.0021 11.0022 25.7921 11.0021 25.456C11.0021 25.272 10.9389 24.9263 10.7435 24.4168C10.6656 24.2136 10.5746 24.0045 10.4744 23.7938C10.1753 24.4437 10.0015 25.0277 10.0017 25.456C10.0018 25.7921 10.2599 26.0021 10.5021 26.0021ZM9.29232 21.7572C9.90287 20.7302 10.5002 20 10.5002 20C10.5002 20 11.0699 20.7554 11.6655 21.7778C12.318 22.8977 13.0018 24.3379 13.0021 25.456C13.0025 26.8622 11.8835 28.0021 10.5027 28.0021C9.12184 28.0021 8.00211 26.8622 8.00167 25.456C8.0013 24.229 8.65402 22.8309 9.29232 21.7572Z" fill="url(#paint2_linear_9_3947)"/>
<path fill-rule="evenodd" clip-rule="evenodd" d="M17.5021 26.0021C17.7442 26.0021 18.0022 25.7921 18.0021 25.456C18.0021 25.272 17.9389 24.9263 17.7435 24.4168C17.6656 24.2136 17.5746 24.0045 17.4744 23.7938C17.1753 24.4437 17.0015 25.0277 17.0017 25.456C17.0018 25.7921 17.2599 26.0021 17.5021 26.0021ZM16.2923 21.7572C16.9029 20.7302 17.5002 20 17.5002 20C17.5002 20 18.0699 20.7554 18.6655 21.7778C19.318 22.8977 20.0018 24.3379 20.0021 25.456C20.0025 26.8622 18.8835 28.0021 17.5027 28.0021C16.1218 28.0021 15.0021 26.8622 15.0017 25.456C15.0013 24.229 15.654 22.8309 16.2923 21.7572Z" fill="url(#paint3_linear_9_3947)"/>
<defs>
<linearGradient id="paint0_linear_9_3947" x1="14" y1="11" x2="14" y2="21" gradientUnits="userSpaceOnUse">
<stop stop-color="#B2D4F7"/>
<stop offset="1" stop-color="#D9E2F3"/>
</linearGradient>
<linearGradient id="paint1_linear_9_3947" x1="14" y1="0" x2="14" y2="21.9572" gradientUnits="userSpaceOnUse">
<stop stop-color="#B2D4F7"/>
<stop offset="1" stop-color="#D9E2F3"/>
</linearGradient>
<linearGradient id="paint2_linear_9_3947" x1="10.5002" y1="20" x2="10.5002" y2="28.0021" gradientUnits="userSpaceOnUse">
<stop stop-color="#95B6F6"/>
<stop offset="1" stop-color="#5193DE"/>
</linearGradient>
<linearGradient id="paint3_linear_9_3947" x1="17.5002" y1="20" x2="17.5002" y2="28.0021" gradientUnits="userSpaceOnUse">
<stop stop-color="#95B6F6"/>
<stop offset="1" stop-color="#5193DE"/>
</linearGradient>
</defs>
</svg>
