<svg width="28" height="28" viewBox="0 0 28 28" fill="none" xmlns="http://www.w3.org/2000/svg">
<path fill-rule="evenodd" clip-rule="evenodd" d="M0 11C0 14.94 1.99765 18.3961 5 20.3388V17.8265C3.1719 16.1872 2 13.7548 2 11C2 5.96046 5.92179 2 10.6083 2C14.5839 2 18.0091 4.85004 18.9569 8.79115L18.9599 8.78992C19.0937 9.33674 19.1791 9.90367 19.2108 10.4855C19.8339 10.1732 20.5272 10 21.2493 10C23.8053 10 26 12.1696 26 15C26 17.1518 24.7314 18.9218 23 19.6467V21.7623C25.8796 20.9627 28 18.2381 28 15C28 11.134 24.9776 8.00001 21.2493 8.00001C21.1054 8.00001 20.9626 8.00467 20.821 8.01387C19.5661 3.38976 15.469 0 10.6083 0C4.74949 0 0 4.92487 0 11ZM15.2565 22.5204L16 22L15.2565 21.4796L15.4142 20.5858L14.5204 20.7435L14 20L13.4796 20.7435L12.5858 20.5858L12.7435 21.4796L12 22L12.7435 22.5204L12.5858 23.4142L13.4796 23.2565L14 24L14.5204 23.2565L15.4142 23.4142L15.2565 22.5204ZM12.8284 18L12.0849 18.5204L12.2426 19.4142L11.3489 19.2565L10.8284 20L10.308 19.2565L9.41422 19.4142L9.57195 18.5204L8.82843 18L9.57195 17.4796L9.41422 16.5858L10.308 16.7435L10.8284 16L11.3489 16.7435L12.2426 16.5858L12.0849 17.4796L12.8284 18ZM12.0849 26.5204L12.8284 26L12.0849 25.4796L12.2426 24.5858L11.3489 24.7435L10.8284 24L10.308 24.7435L9.41422 24.5858L9.57195 25.4796L8.82843 26L9.57195 26.5204L9.41422 27.4142L10.308 27.2565L10.8284 28L11.3489 27.2565L12.2426 27.4142L12.0849 26.5204ZM22 22L21.2565 22.5204L21.4142 23.4142L20.5204 23.2565L20 24L19.4796 23.2565L18.5858 23.4142L18.7435 22.5204L18 22L18.7435 21.4796L18.5858 20.5858L19.4796 20.7435L20 20L20.5204 20.7435L21.4142 20.5858L21.2565 21.4796L22 22ZM18.0849 18.5204L18.8284 18L18.0849 17.4796L18.2426 16.5858L17.3489 16.7435L16.8284 16L16.308 16.7435L15.4142 16.5858L15.572 17.4796L14.8284 18L15.572 18.5204L15.4142 19.4142L16.308 19.2565L16.8284 20L17.3489 19.2565L18.2426 19.4142L18.0849 18.5204ZM18.8284 26L18.0849 26.5204L18.2426 27.4142L17.3489 27.2565L16.8284 28L16.308 27.2565L15.4142 27.4142L15.572 26.5204L14.8284 26L15.572 25.4796L15.4142 24.5858L16.308 24.7435L16.8284 24L17.3489 24.7435L18.2426 24.5858L18.0849 25.4796L18.8284 26ZM9.08491 22.5204L9.82843 22L9.08491 21.4796L9.24264 20.5858L8.34888 20.7435L7.82843 20L7.30798 20.7435L6.41422 20.5858L6.57195 21.4796L5.82843 22L6.57195 22.5204L6.41422 23.4142L7.30798 23.2565L7.82843 24L8.34888 23.2565L9.24264 23.4142L9.08491 22.5204Z" fill="url(#paint0_linear_9_3846)"/>
<defs>
<linearGradient id="paint0_linear_9_3846" x1="14" y1="0" x2="14" y2="28" gradientUnits="userSpaceOnUse">
<stop stop-color="#B2D4F7"/>
<stop offset="1" stop-color="#D9E2F3"/>
</linearGradient>
</defs>
</svg>
